<?xml version="1.0" encoding="UTF-8" standalone="no"?>
<svg
   xmlns:dc="http://purl.org/dc/elements/1.1/"
   xmlns:cc="http://creativecommons.org/ns#"
   xmlns:rdf="http://www.w3.org/1999/02/22-rdf-syntax-ns#"
   xmlns:svg="http://www.w3.org/2000/svg"
   xmlns="http://www.w3.org/2000/svg"
   xmlns:sodipodi="http://sodipodi.sourceforge.net/DTD/sodipodi-0.dtd"
   xmlns:inkscape="http://www.inkscape.org/namespaces/inkscape"
   version="1.1"
   id="Layer_1"
   x="0px"
   y="0px"
   width="100px"
   height="100px"
   viewBox="0 0 100 100"
   enable-background="new 0 0 100 100"
   xml:space="preserve"
   inkscape:version="0.48.1 "
   sodipodi:docname="noun_project_3535.svg"><metadata
   id="metadata9"><rdf:RDF><cc:Work
       rdf:about=""><dc:format>image/svg+xml</dc:format><dc:type
         rdf:resource="http://purl.org/dc/dcmitype/StillImage" /><dc:title></dc:title></cc:Work></rdf:RDF></metadata><defs
   id="defs7" /><sodipodi:namedview
   pagecolor="#ffffff"
   bordercolor="#666666"
   borderopacity="1"
   objecttolerance="10"
   gridtolerance="10"
   guidetolerance="10"
   inkscape:pageopacity="0"
   inkscape:pageshadow="2"
   inkscape:window-width="640"
   inkscape:window-height="480"
   id="namedview5"
   showgrid="false"
   inkscape:zoom="2.91"
   inkscape:cx="20.061387"
   inkscape:cy="77.260783"
   inkscape:window-x="776"
   inkscape:window-y="68"
   inkscape:window-maximized="0"
   inkscape:current-layer="Layer_1" />
<path
   d="m 87.354,67.07 c -3.72,0 -7.296,1.646 -9.568,4.242 C 74.954,67.863 73,63.492 73,58.896 l 0,-0.139 C 73,43.453 65.222,30.413 53.13,23.644 l 4.677,-4.262 C 57.93,19.268 58.152,19 58.24,19 L 63,19 c 1.104,0 2,-0.896 2,-2 0,-1.104 -0.896,-2 -2,-2 l -14,0 c -1.104,0 -2,0.896 -2,2 0,1.104 0.896,2 2,2 l 3.485,0 -2.948,2.76 c -4.173,-1.762 -8.73,-2.819 -13.538,-3.041 l 0,-8.719 c 0,-1.104 -0.896,-2 -2,-2 l -8,0 c -1.104,0 -2,0.896 -2,2 0,1.104 0.896,2 2,2 l 6,0 0,9 0,3.461536 c -4.668992,-1.63769 -9.600406,-4.354192 -13.414437,-2.60388 -3.814031,1.750313 -4.707746,6.550658 -2.214791,9.860476 2.479555,3.292028 7.301745,2.501911 7.422503,4.08427 C 24.112605,39.99985 15.71949,70.203227 10.130673,71.272089 5.622627,72.134253 7.0514296,69.785557 2.0511959,70.846481 -2.1726959,71.742685 -2.4590053,82.656951 5.5300186,85.178529 9.5861954,86.458781 14.65326,88.77665 18.751678,89.729627 22.957448,90.707565 28.81925,91.998 33.409,91.998 c 9.1775,0 17.198429,-0.563371 21.575458,-7.857551 4.640555,-7.733339 10.690574,-19.847829 10.690574,-29.027329 0,-8.7415 -2.050031,-13.397917 -7.922782,-18.978745 C 51.383028,30.081754 44.572,28.357432 36.001,25.63 l 0,-2.908 c 4.466,0.23 8.684,1.274 12.529,2.982 0.308,0.271 0.429,0.433 0.814,0.482 C 61.222,31.946 69,44.22 69,58.758 l 0,0.141 c 0,6.002 2.653,11.691 6.598,15.98 -0.566,1.42 -0.764,2.965 -0.764,4.586 0,6.846 5.613,12.396 12.459,12.396 6.846,0 12.426,-5.551 12.426,-12.396 C 99.719,72.62 94.2,67.07 87.354,67.07 z M 61.674032,55.11312 c 0,8.0615 -5.951912,19.519633 -9.527949,26.188829 C 48.60784,87.900659 41.469,87.998 33.408,87.998 c -4.031,0 -9.385084,-1.119257 -13.089432,-1.95781 -3.861644,-0.874161 -8.377559,-2.584658 -11.9514244,-3.700161 -6.5352474,-2.039832 -6.5833955,-7.695158 -4.207099,-8.566508 2.0272463,-0.743359 4.060351,2.51624 7.9041964,1.30306 5.46732,-1.725572 15.796625,-36.15887 15.051577,-39.772702 -1.02942,-4.993167 -6.485197,-4.280757 -7.473887,-5.409813 -1.265993,-1.445727 -1.794471,-3.227648 0.509101,-4.347814 3.3345,-1.549718 11.847968,2.244802 11.847968,2.915286 l 0,30.445 c 0,1.105 0.896,3.093464 2,3.093464 1.104,0 2,-0.895 2,-2 l 0,-30.359 c 0,0 13.632266,4.73298 18.915875,9.334 5.340341,4.650423 6.759157,8.51362 6.759157,16.138118 z M 87.354,88.861 c -5.182,0 -9.396,-4.215 -9.396,-9.396 0,-0.797 0.11,-1.564 0.298,-2.305 2.555,2.109 5.549,3.705 8.841,4.572 0.17,0.045 0.342,0.066 0.51,0.066 0.887,0 1.697,-0.594 1.934,-1.492 0.28,-1.066 -0.357,-2.162 -1.426,-2.443 -3.025,-0.795 -5.746,-2.336 -8.005,-4.373 1.725,-2.088 4.332,-3.42 7.245,-3.42 5.181,0 9.396,4.215 9.396,9.395 -0.001,5.181 -4.216,9.396 -9.397,9.396 z"
   id="path3"
   inkscape:connector-curvature="0"
   style="fill:#ffffff"
   sodipodi:nodetypes="scssccssssssscccssssscccsssssssssssccccsscssssssssssssscsssccsssccscccscss"
   inkscape:export-filename="C:\Users\Ben\Downloads\Development\svg_3535\DoodleCycleBackground-Dark.png"
   inkscape:export-xdpi="143.16"
   inkscape:export-ydpi="143.16" />
</svg>